<?xml version="1.0" encoding="UTF-8" standalone="no"?>
<svg
   viewBox="0 0 1280 720"
   height="720"
   width="1280"
   xml:space="preserve"
   id="svg2"
   version="1.1"
   sodipodi:docname="templateMainGame.svg"
   inkscape:version="1.1.1 (3bf5ae0d25, 2021-09-20)"
   xmlns:inkscape="http://www.inkscape.org/namespaces/inkscape"
   xmlns:sodipodi="http://sodipodi.sourceforge.net/DTD/sodipodi-0.dtd"
   xmlns="http://www.w3.org/2000/svg"
   xmlns:svg="http://www.w3.org/2000/svg"
   xmlns:rdf="http://www.w3.org/1999/02/22-rdf-syntax-ns#"
   xmlns:cc="http://creativecommons.org/ns#"
   xmlns:dc="http://purl.org/dc/elements/1.1/"><sodipodi:namedview
     id="namedview95"
     pagecolor="#505050"
     bordercolor="#eeeeee"
     borderopacity="1"
     inkscape:pageshadow="0"
     inkscape:pageopacity="0"
     inkscape:pagecheckerboard="0"
     showgrid="false"
     inkscape:zoom="0.94609375"
     inkscape:cx="595.60694"
     inkscape:cy="387.38233"
     inkscape:window-width="1920"
     inkscape:window-height="1017"
     inkscape:window-x="-8"
     inkscape:window-y="-8"
     inkscape:window-maximized="1"
     inkscape:current-layer="g10" /><metadata
     id="metadata8"><rdf:RDF><cc:Work
         rdf:about=""><dc:format>image/svg+xml</dc:format><dc:type
           rdf:resource="http://purl.org/dc/dcmitype/StillImage" /></cc:Work></rdf:RDF></metadata><defs
     id="defs6"><clipPath
       id="clipPath18"
       clipPathUnits="userSpaceOnUse"><path
         style="clip-rule:evenodd"
         id="path16"
         d="M 0,1.2207e-4 H 960 V 540.00012 H 0 Z" /></clipPath><clipPath
       id="clipPath62"
       clipPathUnits="userSpaceOnUse"><path
         style="clip-rule:evenodd"
         id="path60"
         d="M 9.1553e-5,540 H 960 V 1.8311e-4 H 1.2207e-4" /></clipPath><clipPath
       id="clipPath72"
       clipPathUnits="userSpaceOnUse"><path
         style="clip-rule:evenodd"
         id="path70"
         d="M 0,540 H 960 V 1.8311e-4 H 3.0518e-5" /></clipPath><clipPath
       id="clipPath82"
       clipPathUnits="userSpaceOnUse"><path
         style="clip-rule:evenodd"
         id="path80"
         d="M 4.5776e-5,540 H 960 V 1.8311e-4 H 6.1035e-5" /></clipPath></defs><g
     transform="matrix(1.3333333,0,0,-1.3333333,0,720)"
     id="g10"><g
       id="g12"><g
         clip-path="url(#clipPath18)"
         id="g14" /></g><path
       id="path22"
       style="fill:none;stroke:#ffffff;stroke-width:5.03999996;stroke-linecap:butt;stroke-linejoin:miter;stroke-miterlimit:10;stroke-dasharray:none;stroke-opacity:1"
       d="m 291.36,450.29 c 0,9.19 7.44,16.63 16.63,16.63 h 443.02 c 9.19,0 16.63,-7.44 16.63,-16.63 V 37.268 c 0,-9.183 -7.44,-16.628 -16.63,-16.628 H 307.99 c -9.19,0 -16.63,7.445 -16.63,16.628 z" /><path
       id="path24"
       style="fill:none;stroke:#ffffff;stroke-width:5.03999996;stroke-linecap:butt;stroke-linejoin:miter;stroke-miterlimit:10;stroke-dasharray:none;stroke-opacity:1"
       d="m 291.36,502.73 c 0,9.19 7.44,16.63 16.63,16.63 h 443.02 c 9.19,0 16.63,-7.44 16.63,-16.63 V 89.708 c 0,-9.183 -7.44,-16.628 -16.63,-16.628 H 307.99 c -9.19,0 -16.63,7.445 -16.63,16.628 z" /><path
       id="path26"
       style="fill:#262626;fill-opacity:0;fill-rule:evenodd;stroke:none"
       d="m 53.04,476.46 c 0,9.18 7.443,16.62 16.624,16.62 H 512.7 c 9.18,0 16.62,-7.44 16.62,-16.62 V 63.544 c 0,-9.181 -7.44,-16.624 -16.62,-16.624 H 69.664 c -9.181,0 -16.624,7.443 -16.624,16.624 z" /><path
       id="path28"
       style="fill:none;stroke:#ffffff;stroke-width:5.03999996;stroke-linecap:butt;stroke-linejoin:miter;stroke-miterlimit:10;stroke-dasharray:none;stroke-opacity:1"
       d="m 53.04,476.46 c 0,9.18 7.443,16.62 16.624,16.62 H 512.7 c 9.18,0 16.62,-7.44 16.62,-16.62 V 63.544 c 0,-9.181 -7.44,-16.624 -16.62,-16.624 H 69.664 c -9.181,0 -16.624,7.443 -16.624,16.624 z" /><path
       id="path34"
       style="fill:none;stroke:#ffffff;stroke-width:5.03999996;stroke-linecap:butt;stroke-linejoin:miter;stroke-miterlimit:10;stroke-dasharray:none;stroke-opacity:1"
       d="M 700.32,433.2 H 834.89" /><path
       id="path36"
       style="fill:none;stroke:#ffffff;stroke-width:5.03999996;stroke-linecap:butt;stroke-linejoin:miter;stroke-miterlimit:10;stroke-dasharray:none;stroke-opacity:1"
       d="M 700.2,106.44 H 834.77" /><path
       id="path42"
       style="fill:none;stroke:#2f528f;stroke-width:0.95999998;stroke-linecap:butt;stroke-linejoin:miter;stroke-miterlimit:10;stroke-dasharray:none;stroke-opacity:1"
       d="M 94.56,78 H 487.8 V 462 H 94.56 Z" /><path
       id="path44"
       style="fill:#262626;fill-opacity:0;fill-rule:evenodd;stroke:none"
       d="M 94.56,333.96 H 487.8 V 462 H 94.56 Z" /><path
       id="path46"
       style="fill:none;stroke:#ffffff;stroke-width:5.03999996;stroke-linecap:butt;stroke-linejoin:miter;stroke-miterlimit:10;stroke-dasharray:none;stroke-opacity:1"
       d="M 94.56,333.96 H 487.8 V 462 H 94.56 Z" /><path
       id="path48"
       style="fill:#262626;fill-opacity:0;fill-rule:evenodd;stroke:none"
       d="M 94.56,206.04 H 487.8 V 333.96 H 94.56 Z" /><path
       id="path50"
       style="fill:none;stroke:#ffffff;stroke-width:5.03999996;stroke-linecap:butt;stroke-linejoin:miter;stroke-miterlimit:10;stroke-dasharray:none;stroke-opacity:1"
       d="M 94.56,206.04 H 487.8 V 333.96 H 94.56 Z" /><path
       id="path52"
       style="fill:#262626;fill-opacity:0;fill-rule:evenodd;stroke:none"
       d="M 94.56,78 H 487.8 V 206.04 H 94.56 Z" /><path
       id="path54"
       style="fill:none;stroke:#ffffff;stroke-width:5.03999996;stroke-linecap:butt;stroke-linejoin:miter;stroke-miterlimit:10;stroke-dasharray:none;stroke-opacity:1"
       d="M 94.56,78 H 487.8 V 206.04 H 94.56 Z" /><g
       id="g56"><g
         clip-path="url(#clipPath62)"
         id="g58"><path
           id="path64"
           style="fill:none;stroke:#f2f2f2;stroke-width:5.03999996;stroke-linecap:butt;stroke-linejoin:miter;stroke-miterlimit:10;stroke-dasharray:none;stroke-opacity:1"
           d="M 356.76,78 H 487.8 V 462 H 356.76 Z" /></g></g><g
       id="g66"><g
         clip-path="url(#clipPath72)"
         id="g68"><path
           id="path74"
           style="fill:none;stroke:#ffffff;stroke-width:5.03999996;stroke-linecap:butt;stroke-linejoin:miter;stroke-miterlimit:10;stroke-dasharray:none;stroke-opacity:1"
           d="M 225.6,78 H 356.64 V 462 H 225.6 Z" /></g></g><g
       id="g76"><g
         clip-path="url(#clipPath82)"
         id="g78"><path
           id="path84"
           style="fill:none;stroke:#ffffff;stroke-width:5.03999996;stroke-linecap:butt;stroke-linejoin:miter;stroke-miterlimit:10;stroke-dasharray:none;stroke-opacity:1"
           d="M 94.56,78 H 225.6 V 462 H 94.56 Z" /></g></g></g></svg>
